<svg width="42" height="14" viewBox="0 0 42 14" fill="none" xmlns="http://www.w3.org/2000/svg">
<path d="M4.83217 11.5558L2.69027 9.52121C1.20741 8.11268 1.20741 5.76512 2.69027 4.35658L4.83217 2.32203C6.31502 0.913491 8.78644 0.913491 10.2693 2.32203L12.4112 4.35658C13.8941 5.76512 13.8941 8.11268 12.4112 9.52121L10.2693 11.5558C8.78644 12.9643 6.3974 12.9643 4.83217 11.5558Z" fill="#F5B828"/>
<path d="M7.71402 13.4336C7.05497 13.4336 6.56069 13.2771 6.0664 12.8076C4.50117 11.3208 3.01831 9.91225 1.45308 8.42546C0.54689 7.56469 0.54689 6.31266 1.45308 5.45189C3.01831 3.9651 4.58355 2.47831 6.14879 0.991525C6.97259 0.209005 8.29069 0.287257 9.11449 0.991525C10.6797 2.47831 12.3273 3.9651 13.8926 5.53014C14.7164 6.31266 14.7164 7.56469 13.8926 8.34721C12.3273 9.834 10.7621 11.3208 9.19688 12.8076C8.78497 13.1988 8.29069 13.4336 7.71402 13.4336ZM12.7393 6.86042C12.7393 6.54742 12.6569 6.31266 12.4097 6.15616C11.8331 5.60839 11.2564 5.06063 10.6797 4.51286C10.2678 4.1216 9.60878 4.1216 9.19688 4.51286C8.94973 4.74762 8.62021 5.06063 8.37307 5.29538C8.04354 5.60839 8.04354 5.99965 8.37307 6.31266C8.62021 6.62567 9.11449 6.62567 9.44402 6.39091C9.60878 6.31266 9.69116 6.15616 9.85592 5.99965C9.9383 5.84315 10.0207 5.9214 10.1854 5.99965C10.4326 6.23441 10.5973 6.46916 10.9269 6.62567C11.0916 6.78217 11.0916 6.86042 10.9269 7.01693C9.9383 7.95595 8.86735 8.97323 7.87878 9.91225C7.71402 10.0688 7.54926 10.147 7.30212 9.91225C6.39593 9.05148 5.48974 8.26896 4.66593 7.40819C4.41879 7.17343 4.41879 7.01693 4.66593 6.78217C4.99545 6.46917 5.32498 6.15616 5.6545 5.84315C6.56069 4.98238 7.46688 4.12161 8.37307 3.26083C8.62021 3.02608 8.70259 2.79132 8.62021 2.47831C8.53783 2.16531 8.29069 2.0088 8.04354 2.0088C7.71402 1.93055 7.46688 2.08705 7.30212 2.32181C6.47831 3.10433 5.57212 3.9651 4.74831 4.74762C4.17165 5.29539 3.59498 5.84315 3.1007 6.39091C2.60641 6.86043 2.60641 7.48644 3.01831 7.95595C4.33641 9.20798 5.6545 10.46 6.97259 11.712C7.3845 12.1033 7.96116 12.1033 8.45545 11.7903C8.62021 11.6338 8.78497 11.4773 8.94973 11.3208C10.1854 10.147 11.4212 8.97323 12.6569 7.79945C12.6569 7.48644 12.8216 7.17343 12.7393 6.86042Z" fill="#F1B82C"/>
<path d="M28.6406 4.98139C28.6406 4.19887 28.6406 3.3381 28.6406 2.55558C28.6406 2.16432 28.8054 2.00781 29.0525 2.00781C29.3821 2.00781 29.4644 2.16432 29.4644 2.55558C29.4644 3.18159 29.4644 3.72936 29.4644 4.35537C29.4644 4.66838 29.5468 4.74663 29.8763 4.74663C30.5354 4.74663 31.2768 4.74663 31.9359 4.74663C32.183 4.74663 32.3478 4.74663 32.5949 4.82488C33.1716 4.90314 33.4187 5.21614 33.5011 5.76391C33.5011 6.31167 33.5011 6.93769 33.5011 7.48545C33.5011 8.11147 33.1716 8.42448 32.5125 8.50273C31.524 8.58098 30.6178 8.58098 29.6292 8.50273C28.9701 8.42448 28.6406 8.03322 28.6406 7.4072C28.6406 6.62468 28.6406 5.84216 28.6406 4.98139ZM30.9473 5.6074C30.9473 5.6074 30.9473 5.52915 30.9473 5.6074C30.6178 5.6074 30.2059 5.6074 29.8763 5.6074C29.6292 5.6074 29.5468 5.68566 29.5468 5.92041C29.5468 6.38992 29.5468 6.93769 29.5468 7.4072C29.5468 7.72021 29.6292 7.79846 29.9587 7.79846C30.7001 7.79846 31.524 7.79846 32.2654 7.79846C32.5125 7.79846 32.5949 7.72021 32.5949 7.48545C32.5949 7.01594 32.5949 6.54643 32.5949 5.99866C32.5949 5.68566 32.4301 5.6074 32.183 5.6074C31.7711 5.6074 31.3592 5.6074 30.9473 5.6074Z" fill="#070403"/>
<path d="M16.1992 6.93715C16.1992 6.54589 16.1992 6.23288 16.1992 5.84162C16.1992 5.21561 16.5287 4.9026 17.1054 4.82435C17.8468 4.74609 18.5883 4.66784 19.2473 4.9026C19.3297 4.9026 19.4121 4.9026 19.4945 4.9026C20.2359 4.66784 20.9773 4.74609 21.7187 4.82435C22.3778 4.9026 22.7073 5.21561 22.7073 5.84162C22.7073 6.62414 22.7073 7.40666 22.7073 8.11093C22.7073 8.42394 22.5425 8.58044 22.213 8.58044C21.8835 8.58044 21.8011 8.42394 21.8011 8.11093C21.8011 7.40666 21.8011 6.70239 21.8011 5.99813C21.8011 5.52861 21.7187 5.52861 21.2244 5.45036C20.8949 5.45036 20.5654 5.45036 20.2359 5.45036C19.9064 5.45036 19.824 5.60687 19.824 5.91987C19.824 6.62414 19.824 7.32841 19.824 8.03268C19.824 8.18918 19.7416 8.34569 19.5768 8.42394C19.4121 8.50219 19.2473 8.50219 19.0825 8.34569C18.9178 8.26743 18.9178 8.11093 18.9178 7.95443C18.9178 7.25016 18.9178 6.62414 18.9178 5.91987C18.9178 5.45036 18.8354 5.45036 18.4235 5.37211C18.094 5.37211 17.8468 5.37211 17.5173 5.37211C17.1878 5.37211 17.1054 5.52861 17.1054 5.76337C17.1054 6.46764 17.1054 7.17191 17.1054 7.87617C17.1054 8.26743 16.9406 8.42394 16.6935 8.42394C16.364 8.42394 16.1992 8.26743 16.1992 7.87617C16.1992 7.64142 16.1992 7.32841 16.1992 6.93715Z" fill="#070403"/>
<path d="M25.6742 8.58041C25.1799 8.58041 24.6856 8.65866 24.2737 8.58041C23.6147 8.50216 23.2852 8.18915 23.2852 7.48488C23.2852 6.93712 23.2852 6.38935 23.2852 5.91984C23.2852 5.29383 23.6147 4.90257 24.2737 4.82431C25.1799 4.74606 26.1685 4.74606 27.0747 4.82431C27.7337 4.90257 28.0632 5.29383 28.0632 5.91984C28.0632 6.38935 28.0632 6.93712 28.0632 7.40663C28.0632 8.1109 27.7337 8.50216 26.9923 8.50216C26.498 8.58041 26.0861 8.58041 25.6742 8.58041ZM25.6742 7.71964C26.0861 7.71964 26.4156 7.71964 26.8275 7.71964C27.0747 7.71964 27.1571 7.64139 27.1571 7.40663C27.1571 6.85887 27.1571 6.38935 27.1571 5.84159C27.1571 5.68509 27.0747 5.52858 26.8275 5.52858C26.0037 5.52858 25.2623 5.52858 24.4385 5.52858C24.1913 5.52858 24.109 5.68509 24.109 5.91984C24.109 6.38935 24.109 6.93712 24.109 7.40663C24.109 7.64139 24.1913 7.71964 24.4385 7.71964C24.8504 7.71964 25.2623 7.71964 25.6742 7.71964Z" fill="#070403"/>
<path d="M39.5954 7.09769C39.1011 7.09769 38.6068 7.09769 38.0301 7.09769C37.9478 7.09769 37.783 7.01944 37.7006 7.17594C37.7006 7.33244 37.7006 7.5672 37.8654 7.64545C38.0301 7.7237 38.2773 7.7237 38.442 7.7237C38.6892 7.7237 38.9363 7.7237 39.1835 7.7237C39.4306 7.7237 39.513 7.88021 39.5954 8.03671C39.5954 8.27147 39.513 8.42797 39.2659 8.50622C38.6068 8.58447 37.8654 8.58447 37.2887 8.27147C36.9592 8.11496 36.7944 7.88021 36.7944 7.48895C36.7944 6.86293 36.712 6.31517 36.7944 5.68915C36.8768 5.14139 37.124 4.90663 37.7006 4.75013C38.1949 4.67188 38.6892 4.67188 39.1835 4.67188C39.6778 4.67188 40.0897 4.67188 40.5839 4.67188C41.4078 4.67188 41.6549 4.98488 41.6549 5.7674C41.6549 6.00216 41.6549 6.31517 41.6549 6.54992C41.6549 6.86293 41.4901 7.01943 41.1606 7.01943C40.9135 7.01943 40.5839 7.01943 40.3368 7.01943C40.172 7.09769 39.9249 7.09769 39.5954 7.09769ZM39.2659 6.31517C39.6778 6.31517 40.0897 6.31517 40.5839 6.31517C40.6663 6.31517 40.7487 6.31517 40.8311 6.23691C40.8311 6.08041 40.9135 5.84565 40.8311 5.68915C40.7487 5.53265 40.5839 5.6109 40.5016 5.6109C39.9249 5.6109 39.2658 5.6109 38.6892 5.6109C38.5244 5.6109 38.2773 5.6109 38.1125 5.6109C37.783 5.68915 37.8654 5.92391 37.8654 6.15866C37.8654 6.39342 38.0301 6.31517 38.1949 6.31517C38.442 6.31517 38.8539 6.31517 39.2659 6.31517Z" fill="#070403"/>
<path d="M35.4727 5.29427C35.4727 4.4335 35.4727 3.49447 35.4727 2.6337C35.4727 2.24244 35.6374 2.08594 35.8846 2.08594C36.2141 2.08594 36.2965 2.24244 36.2965 2.6337C36.2965 4.12049 36.2965 5.60728 36.2965 7.17232C36.2965 7.48532 36.2965 7.79833 36.2965 8.11134C36.2965 8.42435 36.1317 8.58085 35.8846 8.58085C35.555 8.58085 35.4727 8.42435 35.4727 8.11134C35.4727 7.17232 35.4727 6.23329 35.4727 5.29427Z" fill="#070403"/>
<path d="M34.898 6.62805C34.898 7.09756 34.898 7.56707 34.898 8.11484C34.898 8.42784 34.7333 8.6626 34.4861 8.6626C34.239 8.6626 34.0742 8.5061 34.0742 8.11484C34.0742 7.17581 34.0742 6.15854 34.0742 5.21951C34.0742 4.9065 34.239 4.75 34.4861 4.75C34.8156 4.75 34.898 4.9065 34.898 5.21951C34.898 5.61077 34.898 6.15854 34.898 6.62805Z" fill="#070403"/>
<path d="M34.4861 4.51299C34.1566 4.51299 34.0742 4.35648 34.0742 4.12173C34.0742 3.88697 34.239 3.73047 34.4861 3.73047C34.7333 3.73047 34.898 3.88697 34.898 4.12173C34.898 4.35648 34.7333 4.51299 34.4861 4.51299Z" fill="#070403"/>
<path d="M12.7404 6.85956C12.7404 7.17257 12.5757 7.48558 12.3285 7.72034C11.0928 8.89411 9.85709 10.0679 8.62138 11.2417C8.45662 11.3982 8.29185 11.5547 8.12709 11.7112C7.71519 12.0242 7.05614 12.0242 6.64424 11.6329C5.32614 10.3809 4.00805 9.12887 2.68996 7.87684C2.27805 7.40733 2.27805 6.78131 2.77234 6.3118C3.349 5.76404 3.92567 5.21627 4.41996 4.66851C5.24376 3.88599 6.14995 3.02522 6.97376 2.2427C7.2209 2.00794 7.38566 1.92969 7.71519 1.92969C8.04471 2.00794 8.20947 2.16444 8.29185 2.3992C8.37423 2.71221 8.29185 2.94696 8.04471 3.18172C7.13852 4.04249 6.23233 4.90326 5.32614 5.76404C4.99662 6.07704 4.6671 6.39005 4.33757 6.70306C4.09043 6.93782 4.09043 7.09432 4.33757 7.32908C5.24376 8.18985 6.14995 8.97237 6.97376 9.83314C7.2209 10.0679 7.38566 9.98964 7.55043 9.83314C8.539 8.89411 9.60995 7.87684 10.5985 6.93782C10.7633 6.78131 10.7633 6.70306 10.5985 6.54656C10.3514 6.3118 10.1042 6.07704 9.85709 5.92054C9.77471 5.84229 9.69233 5.76404 9.52757 5.92054C9.44518 6.07704 9.28042 6.1553 9.11566 6.3118C8.78614 6.54656 8.29185 6.54656 8.04471 6.23355C7.79757 5.92054 7.79757 5.52928 8.04471 5.21627C8.29185 4.98152 8.62138 4.66851 8.86852 4.43375C9.28042 4.04249 9.93947 4.04249 10.3514 4.43375C10.928 4.98152 11.5047 5.52928 12.0814 6.07704C12.658 6.3118 12.8228 6.62481 12.7404 6.85956Z" fill="#070403"/>
<path d="M8.29444 2.16533C8.29444 2.16533 8.70634 2.55659 8.4592 2.94785C8.21206 3.26085 4.5873 6.70394 4.5873 6.70394C4.5873 6.70394 4.09302 7.01695 4.34016 7.32996C4.75206 7.72122 7.14111 9.91227 7.14111 9.91227C7.14111 9.91227 7.38825 10.147 7.71777 9.83402C8.0473 9.52101 10.7659 7.01695 10.7659 7.01695C10.7659 7.01695 11.0954 6.86045 10.8482 6.62569C10.6011 6.39093 10.1068 5.92142 10.1068 5.92142C10.1068 5.92142 9.94205 5.76492 9.69491 5.92142C9.44777 6.07793 9.11825 6.39093 9.11825 6.39093C9.11825 6.39093 8.54158 6.54744 8.29444 6.15618C8.0473 5.76492 8.12968 5.45191 8.29444 5.1389C8.62396 4.90415 9.36539 4.27813 9.36539 4.27813C9.36539 4.27813 9.94205 3.80862 10.7659 4.51289C11.5073 5.21715 12.4135 6.07793 12.4135 6.07793C12.4135 6.07793 13.0725 6.78219 12.4959 7.40821C11.9192 8.03423 8.4592 11.3208 8.4592 11.3208C8.4592 11.3208 7.55301 12.3381 6.64682 11.4773C5.74063 10.6165 2.77493 7.79947 2.77493 7.79947C2.77493 7.79947 1.95112 7.0952 2.93969 6.15618C3.92826 5.21715 7.14111 2.16533 7.14111 2.16533C7.14111 2.16533 7.71777 1.61756 8.29444 2.16533Z" fill="#000005"/>
</svg>
