<svg width="16" height="13" viewBox="0 0 16 13" fill="none" xmlns="http://www.w3.org/2000/svg">
<path d="M7.80859 3.35156C7.88151 3.3151 7.95443 3.29688 8.02734 3.29688C8.10026 3.29688 8.17318 3.3151 8.24609 3.35156L13.2773 7.50781V11.9922C13.2773 12.1198 13.2318 12.2201 13.1406 12.293C13.0677 12.3841 12.9674 12.4297 12.8398 12.4297H9.77734C9.64974 12.4297 9.54036 12.3841 9.44922 12.293C9.3763 12.2018 9.33984 12.1016 9.33984 11.9922V9.36719C9.33984 9.29427 9.32161 9.22135 9.28516 9.14844C9.2487 9.07552 9.19401 9.02083 9.12109 8.98438C9.04818 8.94792 8.97526 8.92969 8.90234 8.92969H7.15234C7.02474 8.92969 6.91536 8.97526 6.82422 9.06641C6.7513 9.13932 6.71484 9.23958 6.71484 9.36719V11.9922C6.71484 12.1016 6.66927 12.2018 6.57812 12.293C6.50521 12.3841 6.40495 12.4297 6.27734 12.4297H3.21484C3.08724 12.4297 2.97786 12.3841 2.88672 12.293C2.8138 12.2201 2.77734 12.1198 2.77734 11.9922V7.50781L7.80859 3.35156ZM15.793 6.16797C15.8659 6.24089 15.9023 6.33203 15.9023 6.44141C15.9023 6.51432 15.875 6.57812 15.8203 6.63281L15.1367 7.48047C15.0638 7.57161 14.9818 7.61719 14.8906 7.61719C14.7995 7.61719 14.7266 7.58984 14.6719 7.53516L8.24609 2.23047C8.17318 2.19401 8.10026 2.17578 8.02734 2.17578C7.95443 2.17578 7.88151 2.19401 7.80859 2.23047L1.38281 7.53516C1.32812 7.58984 1.26432 7.61719 1.19141 7.61719C1.08203 7.61719 0.990885 7.57161 0.917969 7.48047L0.234375 6.63281C0.179688 6.57812 0.152344 6.51432 0.152344 6.44141C0.152344 6.33203 0.188802 6.24089 0.261719 6.16797L7.17969 0.480469C7.4349 0.279948 7.71745 0.179688 8.02734 0.179688C8.33724 0.179688 8.61068 0.279948 8.84766 0.480469L15.793 6.16797Z" fill="white"/>
</svg>
