<svg width="43" height="14" viewBox="0 0 43 14" fill="none" xmlns="http://www.w3.org/2000/svg">
<path d="M37.2579 0.550438C37.9163 0.341987 38.537 0.431323 39.164 0.669553C40.1359 1.05668 40.8507 1.74159 41.415 2.56944C41.8539 3.22457 42.1674 3.9333 42.2301 4.70755C42.2614 5.15423 42.1987 5.60091 41.9479 6.01186C40.8193 7.85218 39.697 9.69251 38.5684 11.5388C38.5684 11.5686 38.537 11.5983 38.5057 11.5983C38.5057 11.4792 38.5684 11.3601 38.5997 11.2708C38.7878 10.705 38.8505 10.1392 38.6624 9.57935C38.4743 9.01356 38.0981 8.62643 37.6279 8.27504C37.0949 7.85814 36.4679 7.56035 35.8785 7.26257C35.2202 6.90522 34.5368 6.57766 34.0352 5.98804C34.2546 5.00534 34.5681 4.05837 35.007 3.16501C35.3832 2.42054 35.8221 1.71181 36.4428 1.11623C36.6623 0.907783 36.9131 0.758889 37.1952 0.580217C37.2266 0.580217 37.2579 0.580217 37.2579 0.550438Z" fill="#D61921"/>
<path d="M37.194 0.582031C36.9432 0.760704 36.6924 0.909598 36.4416 1.11805C35.8146 1.71363 35.3757 2.42236 35.0058 3.16684C34.5669 4.0602 34.2534 5.00717 34.034 5.98987C33.8459 6.70456 33.7518 7.44308 33.7205 8.18755C33.6891 8.63423 33.7205 9.05113 33.7205 9.49186C33.7518 9.84921 33.7832 10.2066 33.8459 10.5639C33.9713 11.2786 34.1907 11.9278 34.5669 12.5829C34.5042 12.6127 34.5042 12.5531 34.4729 12.5233C33.8145 11.5109 33.1624 10.4746 32.4727 9.46208C31.9711 8.65805 31.4382 7.88976 30.9115 7.08573C30.4726 6.4306 30.0964 5.75164 29.9396 5.00717C29.8142 4.44137 29.8142 3.87557 30.0964 3.34551C30.2845 2.98816 30.5666 2.77971 30.9428 2.6606C32.1028 2.27347 33.2565 1.91612 34.4478 1.529C35.3256 1.23121 36.2285 0.933423 37.1063 0.665413C37.1313 0.582033 37.1627 0.582031 37.194 0.582031Z" fill="#C6C7C9"/>
<path d="M34.5652 12.5519C34.189 11.9266 33.9695 11.2476 33.8441 10.533C33.7814 10.1756 33.7501 9.81828 33.7188 9.46094C33.7814 9.46094 33.8441 9.49072 33.9068 9.52049C35.4994 10.2352 37.0983 10.2947 38.6908 9.55027C38.8789 10.1161 38.8162 10.6818 38.6281 11.2417C38.5968 11.3608 38.5341 11.4501 38.5341 11.5692C38.5027 11.5692 38.5027 11.599 38.5027 11.6288C38.1892 12.1946 37.8757 12.7306 37.3114 13.1117C36.4963 13.618 35.4681 13.5286 34.8097 12.8437C34.7219 12.7901 34.6592 12.6412 34.5652 12.5519Z" fill="#020202"/>
<path d="M24.6618 5.77826C24.9753 5.39114 25.3515 5.15291 25.8782 5.06357C26.5052 4.97424 26.9441 5.36136 26.9441 5.95694C26.9441 6.67163 26.9127 7.38036 26.9754 8.09505C26.9754 8.21417 27.0068 8.33328 27.0068 8.4524C27.0068 8.54173 27.0068 8.57151 26.9127 8.57151C26.756 8.57151 26.5992 8.57151 26.4111 8.57151C26.2857 8.57151 26.2857 8.54173 26.2857 8.4524C26.2857 7.91638 26.2857 7.35058 26.2857 6.8503C26.2857 6.58229 26.2857 6.31428 26.2544 6.07605C26.1603 5.80804 26.0036 5.68893 25.7214 5.65915C25.502 5.65915 25.3139 5.68893 25.0944 5.77826C24.8123 5.89738 24.6555 6.04627 24.6555 6.40362C24.6869 7.11831 24.6242 7.79727 24.7496 8.51196C24.7496 8.60129 24.7496 8.60129 24.6555 8.60129C24.4361 8.60129 24.248 8.60129 24.0285 8.60129C23.9031 8.60129 23.9345 8.51196 23.9345 8.48218C23.9345 7.76749 23.9345 7.08853 23.9345 6.37384C23.9345 5.83782 23.6837 5.59959 23.1194 5.65915C23.0253 5.65915 22.8999 5.68893 22.8372 5.74849C22.4297 5.89738 22.3043 6.04627 22.3043 6.49296C22.3356 7.14809 22.2729 7.79727 22.3356 8.48218C22.3356 8.57151 22.3356 8.60129 22.2416 8.60129C22.0221 8.60129 21.8027 8.69063 21.6773 8.57151C21.5519 8.48218 21.6459 8.21417 21.6459 8.0355C21.6459 7.43992 21.6459 6.88008 21.6773 6.25473C21.6773 6.04627 21.6773 5.89738 21.5832 5.71871C21.5519 5.59959 21.4892 5.51026 21.4265 5.48048C21.207 5.33158 21.207 5.27203 21.4578 5.18269C21.5832 5.15291 21.7086 5.09335 21.834 5.09335C22.2102 5.09335 22.2729 5.18269 22.3356 5.51026C22.3356 5.54003 22.3043 5.65915 22.367 5.65915C22.4297 5.65915 22.461 5.56981 22.4924 5.56981C22.8059 5.27203 23.1821 5.06357 23.6523 5.06357C24.1289 5.0338 24.4737 5.27203 24.6618 5.77826ZM22.4046 5.71871C22.4046 5.68893 22.4046 5.68893 22.4046 5.71871C22.3733 5.71871 22.3733 5.71871 22.3733 5.71871C22.3733 5.71871 22.3733 5.71871 22.4046 5.71871Z" fill="#060606"/>
<path d="M3.55197 6.31079C3.55197 5.65566 3.55197 5.00649 3.55197 4.32158C3.55197 3.84512 3.55197 3.84512 3.05037 3.84512C2.89362 3.84512 2.67417 3.84512 2.51742 3.8749C2.29797 3.90468 2.14122 3.99401 2.07852 4.17268C2.07852 4.20246 2.04717 4.2918 1.98447 4.26202C1.95312 4.26202 1.95312 4.17268 1.95312 4.1429C1.95312 4.02379 1.95312 3.90468 1.95312 3.78556C1.98447 3.42822 2.07852 3.39844 2.39202 3.39844C3.45792 3.48777 4.5489 3.48777 5.6148 3.39844C5.7402 3.39844 5.83425 3.42822 5.8656 3.54733C5.95965 3.75578 5.95965 3.96423 5.89695 4.17268C5.89695 4.20246 5.89695 4.26202 5.8656 4.26202C5.83425 4.26202 5.83425 4.26202 5.77155 4.23224C5.64615 3.93445 5.364 3.8749 5.01915 3.8749C4.8624 3.8749 4.64295 3.8749 4.4862 3.8749C4.32945 3.8749 4.26675 3.90468 4.26675 4.08335C4.26675 4.47047 4.2354 4.82781 4.2354 5.21494C4.2354 6.31675 4.20405 7.38283 4.26675 8.45486C4.26675 8.57397 4.2354 8.57397 4.14135 8.57397C3.9846 8.57397 3.76515 8.57397 3.6084 8.57397C3.483 8.57397 3.45165 8.54419 3.45165 8.42508C3.55197 7.71039 3.52062 7.02548 3.55197 6.31079Z" fill="#060606"/>
<path d="M21.0277 6.72706C21.0277 7.97182 19.8364 8.8354 18.62 8.50784C17.9616 8.35894 17.6795 7.88248 17.5541 7.29286C17.3346 6.42927 17.7108 5.6312 18.4946 5.27385C19.5605 4.76761 21.0277 5.21429 21.0277 6.72706ZM20.2126 6.96529C20.2126 6.45905 20.0872 5.95281 19.6796 5.60142C19.2721 5.21429 18.7391 5.33341 18.4883 5.80987C18.3315 6.10766 18.2688 6.43523 18.3315 6.73302C18.3629 7.23926 18.4569 7.71572 18.8332 8.03733C19.1467 8.39468 19.6169 8.33512 19.8991 7.94799C20.1185 7.67998 20.1499 7.32264 20.2126 6.96529Z" fill="#060606"/>
<path d="M13.6168 7.55993C13.6168 7.82794 13.5228 8.03639 13.366 8.18528C12.8331 8.66174 11.8048 8.78086 11.2092 8.42351C10.7076 8.1555 10.5195 7.67904 10.5195 7.17876C10.4881 6.52363 10.6449 5.93401 11.1465 5.45755C11.6481 5.04064 12.4255 4.95131 12.9585 5.30865C13.3347 5.54688 13.4914 5.84467 13.5228 6.29135V6.32113C13.5541 6.70825 13.5228 6.73803 13.1152 6.73803C12.5509 6.73803 11.9553 6.73803 11.4286 6.70825C11.2719 6.70825 11.2092 6.73803 11.2092 6.91671C11.2092 7.09538 11.2092 7.21449 11.3032 7.39317C11.5227 8.01852 12.1183 8.28653 12.8644 8.13764C13.0839 7.94705 13.366 7.82794 13.6168 7.55993ZM12.0242 6.45811C12.0242 6.42833 12.0242 6.42833 12.0242 6.45811C12.2437 6.42833 12.4631 6.42833 12.6826 6.42833C12.7766 6.42833 12.808 6.39855 12.808 6.30922C12.808 6.10077 12.7139 5.92209 12.6512 5.71364C12.4004 5.29674 11.8048 5.29674 11.4913 5.71364C11.3659 5.92209 11.2719 6.13055 11.2405 6.339C11.2092 6.45811 11.2405 6.45811 11.3659 6.45811C11.5854 6.42833 11.7735 6.45811 12.0242 6.45811Z" fill="#060606"/>
<path d="M8.45857 7.56047C8.45857 7.82848 8.36452 8.03693 8.20777 8.18583C7.64348 8.72185 6.48981 8.7814 5.83147 8.30494C5.51798 8.06671 5.39258 7.70937 5.32988 7.3818C5.23583 6.72667 5.36123 6.13705 5.83147 5.63081C6.30172 5.12457 7.14189 4.97567 7.73753 5.33302C8.14507 5.57125 8.30182 5.95837 8.30182 6.37528C8.30182 6.67306 8.30182 6.73262 7.92563 6.73262C7.39268 6.73262 6.85974 6.73262 6.33307 6.70284C5.95687 6.70284 5.95687 6.67306 5.95687 7.00063C5.98822 7.80466 6.70926 8.27516 7.54943 8.04289C7.98833 7.97738 8.27047 7.82848 8.45857 7.56047ZM6.92871 6.45866C6.92871 6.42888 6.92871 6.42888 6.92871 6.45866C7.14816 6.42888 7.33625 6.42888 7.58705 6.42888C7.71245 6.42888 7.7438 6.3991 7.71245 6.30976C7.71245 6.10131 7.6184 5.89286 7.493 5.71419C7.21086 5.32706 6.64656 5.32706 6.39577 5.71419C6.27037 5.92264 6.17632 6.13109 6.14497 6.33954C6.11362 6.45866 6.14497 6.48844 6.27037 6.45866C6.45846 6.42888 6.70926 6.45866 6.92871 6.45866Z" fill="#060606"/>
<path d="M17.0916 7.47159C17.1856 7.70982 17.0916 7.88849 16.9662 8.06716C16.5273 8.54362 15.9316 8.69252 15.2795 8.54362C14.6525 8.42451 14.3077 8.03738 14.1823 7.41203C14.0569 6.69734 14.1509 6.10772 14.6839 5.54192C15.2168 4.91657 16.1824 4.94635 16.7154 5.18458C16.8408 5.21435 16.9348 5.30369 16.9662 5.39303C17.0602 5.51214 17.0916 5.66104 16.9662 5.80993C16.8721 5.95882 16.7154 5.95882 16.5586 5.92905C16.4646 5.92905 16.4332 5.89927 16.4019 5.80993C16.2451 5.42281 15.7122 5.27391 15.336 5.54192C14.9598 5.83971 14.8344 6.19705 14.803 6.64374C14.7717 7.03086 14.8344 7.38821 15.0852 7.68599C15.4927 8.19223 16.1824 8.22201 16.7718 7.80511C16.9035 7.70982 16.9662 7.5907 17.0916 7.47159Z" fill="#060606"/>
<path d="M9.8656 6.16487C9.83425 6.93912 9.83425 7.67764 9.89695 8.45189C9.89695 8.571 9.8656 8.571 9.77155 8.571C9.55209 8.571 9.36399 8.571 9.14453 8.571C9.05048 8.571 9.05048 8.54122 9.05048 8.45189C9.05048 7.52874 9.05048 6.58177 9.08183 5.6884C9.08183 5.2715 9.08183 4.79503 9.08183 4.38408C9.08183 4.14585 8.98778 3.90762 8.79967 3.72895C8.70562 3.63961 8.76832 3.63961 8.79967 3.60983C9.01913 3.49072 9.23859 3.46094 9.45804 3.46094C9.6775 3.49072 9.77155 3.58005 9.83425 3.81828C9.9283 4.17563 9.83425 4.53298 9.83425 4.86055C9.8656 5.2715 9.8656 5.71818 9.8656 6.16487Z" fill="#060606"/>
<path d="M1.51932 6.66732C1.51932 7.20334 1.45662 7.76913 1.51932 8.32896C1.55067 8.56719 1.55067 8.56719 1.29987 8.56719C1.11177 8.56719 0.923673 8.56719 0.735574 8.56719C0.641524 8.56719 0.610174 8.53741 0.610174 8.44808C0.641524 7.88228 0.641524 7.29267 0.672874 6.72688C0.672874 6.36954 0.735574 6.0122 0.672874 5.62508C0.641524 5.53574 0.610174 5.38685 0.578824 5.32729C0.547474 5.26774 0.484775 5.23796 0.453425 5.23796C0.359375 5.20818 0.359375 5.14862 0.359375 5.08906C0.359375 4.99973 0.390725 4.94017 0.484775 4.88061C0.641524 4.79128 0.829624 4.7615 1.01772 4.7615C1.39392 4.73172 1.58202 4.88061 1.58202 5.26774C1.58202 5.65486 1.55067 6.04198 1.55067 6.42314C1.51932 6.45887 1.51932 6.54821 1.51932 6.66732Z" fill="#060606"/>
<path d="M1.48377 3.75918C1.48377 4.02719 1.23297 4.26542 0.982167 4.26542C0.700018 4.26542 0.449219 4.02719 0.449219 3.78896C0.449219 3.52095 0.668668 3.3125 0.982167 3.3125C1.26432 3.3125 1.48377 3.55073 1.48377 3.75918Z" fill="#060606"/>
<path d="M38.4844 11.6885C38.4844 11.6587 38.4844 11.6289 38.516 11.6289C38.5476 11.6289 38.5476 11.6587 38.4844 11.6885Z" fill="#D61921"/>
<path d="M37.2546 0.550781C37.2546 0.580559 37.223 0.580559 37.1914 0.580559C37.223 0.550781 37.2546 0.550781 37.2546 0.550781Z" fill="#C6C7C9"/>
<path d="M22.4033 5.72155C22.3711 5.75132 22.3711 5.72155 22.3711 5.72155C22.3711 5.72155 22.4033 5.69178 22.4033 5.72155C22.4033 5.69178 22.4033 5.69178 22.4033 5.72155Z" fill="#FEFEFE"/>
</svg>
