<svg width="49" height="8" viewBox="0 0 49 8" fill="none" xmlns="http://www.w3.org/2000/svg">
<path d="M0.226562 2.41699H1.10655V2.83493C1.21655 2.62596 1.43654 2.52147 1.76654 2.41699C2.09653 2.41699 2.53652 2.3125 3.08652 2.3125C3.8565 2.3125 4.51649 2.41699 4.84649 2.52147C5.17648 2.62596 5.50648 2.83493 5.61647 3.0439C5.72647 2.83493 5.94647 2.62596 6.27646 2.52147C6.60646 2.41699 7.15645 2.3125 7.81644 2.3125C8.47643 2.3125 9.02642 2.3125 9.35641 2.41699C9.68641 2.52147 10.0164 2.62596 10.2364 2.83493C10.3464 3.0439 10.4564 3.25287 10.5664 3.46184C10.5664 3.67081 10.6764 4.08875 10.6764 4.61118V7.11882H9.68641V4.50669C9.68641 3.98426 9.57641 3.56632 9.46641 3.46184C9.24641 3.25287 8.69642 3.14838 7.92644 3.14838C7.48644 3.14838 7.04645 3.14838 6.82645 3.25287C6.60646 3.35735 6.38646 3.35735 6.27646 3.56632C6.16646 3.67081 6.05647 3.87978 6.05647 4.19323C6.05647 4.4022 5.94647 4.82015 5.94647 5.44706V7.32779H5.06648V4.71566C5.06648 4.4022 5.06648 4.19323 5.06648 3.98426C5.06648 3.87978 4.95648 3.67081 4.84649 3.67081C4.62649 3.46184 4.0765 3.35735 3.30651 3.35735C2.86652 3.35735 2.42653 3.35735 2.20653 3.46184C1.98653 3.56632 1.76654 3.67081 1.65654 3.77529C1.54654 3.87978 1.43654 4.08875 1.43654 4.29772C1.43654 4.50669 1.32654 4.92463 1.32654 5.55154V7.43228H0.226562V2.41699Z" fill="#134A9F"/>
<path d="M14.4192 2.3125C15.1892 2.3125 15.7391 2.3125 16.1791 2.41699C16.5091 2.41699 16.8391 2.52147 17.0591 2.62595C17.3891 2.83493 17.6091 3.0439 17.7191 3.35735C17.8291 3.67081 17.9391 4.08875 17.9391 4.71566C17.9391 5.34257 17.8291 5.76051 17.7191 6.17845C17.6091 6.38742 17.3891 6.59639 17.1691 6.80536C16.9491 6.90985 16.7291 7.01433 16.3991 7.11882C16.0691 7.2233 15.5192 7.22331 14.8592 7.22331C14.1992 7.22331 13.6492 7.2233 13.3192 7.11882C12.9892 7.11882 12.6592 7.01434 12.4392 6.90985C12.1092 6.70088 11.8892 6.49191 11.6692 6.17845C11.5592 5.865 11.4492 5.34257 11.4492 4.82015C11.4492 4.19323 11.5592 3.67081 11.7792 3.35735C11.9992 3.0439 12.3292 2.73044 12.6592 2.62595C12.8792 2.41698 13.5392 2.3125 14.4192 2.3125ZM14.5292 3.0439C13.9792 3.0439 13.6492 3.0439 13.4292 3.0439C13.2092 3.0439 12.9892 3.14838 12.8792 3.25287C12.6592 3.35735 12.5492 3.56632 12.5492 3.77529C12.4392 3.98426 12.4392 4.29772 12.4392 4.71566C12.4392 5.1336 12.4392 5.55154 12.5492 5.76051C12.6592 5.96948 12.8792 6.17845 13.0992 6.17845C13.4292 6.28294 13.9792 6.28294 14.7492 6.28294C15.2992 6.28294 15.7391 6.28294 15.9591 6.17845C16.1791 6.17845 16.3991 6.07397 16.5091 5.96948C16.6191 5.865 16.8391 5.65603 16.8391 5.44706C16.9491 5.23809 16.9491 4.92463 16.9491 4.50669C16.9491 3.98426 16.8391 3.67081 16.7291 3.46184C16.6191 3.25287 16.3991 3.0439 16.0691 2.93941C15.8491 3.14838 15.2992 3.0439 14.5292 3.0439Z" fill="#134A9F"/>
<path d="M18.5977 0.433594H19.5876V3.04572H19.4776C19.6976 2.83675 19.9176 2.62778 20.1376 2.5233C20.4676 2.41881 20.9076 2.41881 21.6776 2.41881C22.4476 2.41881 23.1076 2.41881 23.4376 2.5233C23.7676 2.5233 24.0976 2.62778 24.3176 2.83675C24.6476 3.04572 24.7576 3.2547 24.8676 3.56815C24.9776 3.88161 25.0875 4.29955 25.0875 4.92646C25.0875 5.55337 24.9776 6.0758 24.7576 6.38925C24.4276 6.80719 23.9876 7.12065 23.2176 7.22513C22.8876 7.22513 22.4476 7.32962 21.7876 7.32962C21.0176 7.32962 20.4676 7.32962 20.1376 7.22513C19.8076 7.12065 19.5876 7.01616 19.3676 6.70271H19.4776V7.32962H18.5977V0.433594ZM21.6776 3.04572C21.1276 3.04572 20.7976 3.04572 20.5776 3.15021C20.3576 3.15021 20.1376 3.25469 20.0276 3.35918C19.8076 3.46366 19.6976 3.67264 19.6976 3.88161C19.6976 4.09058 19.5876 4.40403 19.5876 4.82197C19.5876 5.3444 19.6976 5.76234 19.8076 5.97131C19.9176 6.18028 20.1376 6.38925 20.4676 6.38925C20.7976 6.49374 21.3476 6.49374 22.2276 6.49374C22.6676 6.49374 22.9976 6.49374 23.2176 6.38925C23.4376 6.38925 23.6576 6.28477 23.7676 6.18028C23.8776 6.0758 23.9876 5.97131 24.0976 5.65786C24.2076 5.3444 24.2076 5.13543 24.2076 4.71749C24.2076 4.19506 24.0976 3.77712 23.9876 3.56815C23.8776 3.35918 23.6576 3.15021 23.3276 3.15021C22.9976 3.15021 22.4476 3.04572 21.6776 3.04572Z" fill="#134A9F"/>
<path d="M26.7355 0.746094H25.8555V1.68646H26.7355V0.746094Z" fill="#E12728"/>
<path d="M26.7355 2.41797H25.8555V7.1198H26.7355V2.41797Z" fill="#134A9F"/>
<path d="M26.9609 2.41881H27.7309C27.7309 2.00087 27.7309 1.68742 27.8409 1.47845C27.8409 1.26948 27.9509 1.06051 28.1709 0.95602C28.3909 0.747049 28.6109 0.642563 28.8309 0.538077C29.1609 0.433592 29.6009 0.433594 30.1509 0.433594H31.2509L30.1509 1.16499C29.7109 1.16499 29.4909 1.16499 29.2709 1.26947C29.0509 1.26947 28.9409 1.37396 28.8309 1.47845C28.7209 1.58293 28.7209 1.68742 28.7209 1.7919C28.7209 1.89639 28.7209 2.10536 28.7209 2.5233H31.1409L30.2609 3.25469H28.7209V7.22513H27.8409V3.25469H27.0709V2.41881H26.9609Z" fill="#E12728"/>
<path d="M33.3371 2.3125C34.1071 2.3125 34.6571 2.3125 35.0971 2.41699C35.4271 2.41699 35.7571 2.52147 35.9771 2.62595C36.3071 2.83493 36.5271 3.0439 36.6371 3.35735C36.7471 3.67081 36.8571 4.08875 36.8571 4.71566C36.8571 5.34257 36.7471 5.76051 36.6371 6.17845C36.5271 6.38742 36.3071 6.59639 36.0871 6.80536C35.8671 6.90985 35.6471 7.01433 35.3171 7.11882C34.9871 7.2233 34.4371 7.22331 33.7771 7.22331C33.1171 7.22331 32.5672 7.2233 32.2372 7.11882C31.9072 7.11882 31.5772 7.01434 31.3572 6.90985C31.0272 6.70088 30.8072 6.49191 30.5872 6.17845C30.4772 5.865 30.3672 5.34257 30.3672 4.82015C30.3672 4.19323 30.4772 3.67081 30.6972 3.35735C30.9172 3.0439 31.2472 2.73044 31.5772 2.62595C31.7972 2.41698 32.4572 2.3125 33.3371 2.3125ZM33.4471 3.0439C32.8971 3.0439 32.5672 3.0439 32.3472 3.0439C32.1272 3.0439 31.9072 3.14838 31.7972 3.25287C31.5772 3.35735 31.4672 3.56632 31.4672 3.77529C31.3572 3.98426 31.3572 4.29772 31.3572 4.71566C31.3572 5.1336 31.3572 5.55154 31.4672 5.76051C31.5772 5.96948 31.7972 6.17845 32.0172 6.17845C32.3472 6.28294 32.8971 6.28294 33.6671 6.28294C34.2171 6.28294 34.6571 6.28294 34.8771 6.17845C35.0971 6.17845 35.3171 6.07397 35.4271 5.96948C35.5371 5.865 35.7571 5.65603 35.7571 5.44706C35.8671 5.23809 35.8671 4.92463 35.8671 4.50669C35.8671 3.98426 35.7571 3.67081 35.6471 3.46184C35.5371 3.25287 35.3171 3.0439 34.9871 2.93941C34.7671 3.14838 34.2171 3.0439 33.4471 3.0439Z" fill="#E12728"/>
<path d="M35.5156 2.41699H36.3956V3.14838H36.2856C36.3956 2.83493 36.7256 2.62596 37.0556 2.52147C37.3856 2.41699 37.9356 2.3125 38.8156 2.3125C39.4756 2.3125 40.0256 2.3125 40.3555 2.41699C40.6855 2.52147 41.0155 2.62596 41.2355 2.83493C41.3455 3.0439 41.4555 3.14838 41.5655 3.46184C41.6755 3.67081 41.6755 3.98426 41.6755 4.50669V7.11882H40.7955V4.82015C40.7955 4.4022 40.7955 4.08875 40.7955 3.98426C40.7955 3.77529 40.6855 3.67081 40.5755 3.56632C40.4655 3.46184 40.2455 3.35735 40.0256 3.25287C39.8056 3.14838 39.3656 3.14838 38.8156 3.14838C38.2656 3.14838 37.8256 3.14838 37.4956 3.25287C37.1656 3.35735 36.9456 3.46184 36.8356 3.67081C36.7256 3.77529 36.6156 3.98426 36.6156 4.08875C36.6156 4.29772 36.6156 4.50669 36.6156 5.02912V7.22331H35.7356V2.41699H35.5156Z" fill="#E12728"/>
<path d="M47.8391 5.55447H48.8291C48.8291 6.18138 48.6091 6.59932 48.1691 6.80829C47.7291 7.01726 47.0691 7.12174 46.0792 7.12174C45.3092 7.12174 44.6492 7.12174 44.2092 7.01726C43.7692 6.91277 43.4392 6.80829 43.2192 6.7038C42.6692 6.39035 42.4492 5.65895 42.4492 4.71858C42.4492 3.98719 42.5592 3.46476 42.7792 3.1513C42.9992 2.83785 43.3292 2.62888 43.6592 2.41991C44.0992 2.31542 44.6492 2.21094 45.5292 2.21094C46.4092 2.21094 46.9591 2.21094 47.3991 2.31542C47.8391 2.41991 48.0591 2.52439 48.2791 2.83785C48.4991 3.04682 48.6091 3.25579 48.7191 3.56925C48.8291 3.8827 48.8291 4.30064 48.8291 4.82307H43.4392C43.4392 5.34549 43.5492 5.76344 43.7692 5.97241C43.8792 6.07689 44.0992 6.18138 44.4292 6.28586C44.7592 6.28586 45.1992 6.39035 45.9692 6.39035C46.5192 6.39035 46.8491 6.39035 47.1791 6.28586C47.3991 6.28586 47.6191 6.18138 47.7291 6.07689C47.7291 5.97241 47.8391 5.86792 47.8391 5.55447ZM47.8391 4.30064C47.8391 3.8827 47.7291 3.56925 47.5091 3.46476C47.3991 3.36028 47.1791 3.25579 46.8491 3.25579C46.5192 3.25579 46.1892 3.1513 45.5292 3.1513C45.0892 3.1513 44.6492 3.1513 44.4292 3.25579C44.2092 3.25579 43.9892 3.36028 43.8792 3.46476C43.6592 3.67373 43.5492 3.8827 43.4392 4.40513H47.8391V4.30064Z" fill="#E12728"/>
</svg>
