<svg width="33" height="13" viewBox="0 0 33 13" fill="none" xmlns="http://www.w3.org/2000/svg">
<path d="M27.2383 2.0262V3.46581L29.6425 2.32631V0.933594L27.2383 2.0262Z" fill="#FF0000"/>
<path d="M29.6719 2.44743V3.73699L31.8934 2.39585V0.984375L29.6719 2.44743Z" fill="#FF0000"/>
<path d="M28.0729 5.24774C28.0729 5.24774 31.188 4.4365 32.6245 2.96875V4.65689C32.6245 4.65689 31.7606 5.47752 31.2373 5.52441C30.714 5.57599 27.0312 5.59944 27.0312 5.59944L28.0729 5.24774Z" fill="#FF0000"/>
<path d="M26.1133 6.82422H24.8594V12.5498H26.1133V6.82422Z" fill="black"/>
<path d="M25.4845 5.8685C25.8881 5.8685 26.2152 5.55778 26.2152 5.17448C26.2152 4.79119 25.8881 4.48047 25.4845 4.48047C25.081 4.48047 24.7539 4.79119 24.7539 5.17448C24.7539 5.55778 25.081 5.8685 25.4845 5.8685Z" fill="black"/>
<path d="M0.222656 6.7196V12.6515H1.42228V6.74304C1.42722 6.74304 0.222656 6.64457 0.222656 6.7196Z" fill="#FF0000"/>
<path d="M9.36888 6.74219V8.0083H3.56824C3.56824 8.0083 1.48001 8.23338 1.16406 10.4655V7.95671C1.16406 7.95671 1.76634 6.74219 4.06685 6.74219C9.40837 6.74219 9.40837 6.7797 9.36888 6.74219Z" fill="#FF0000"/>
<path d="M7.77175 9.17578H4.16797V10.2919H7.77175V9.17578Z" fill="#FF0000"/>
<path d="M9.54403 11.5078H4.16797V12.6239H9.54403V11.5078Z" fill="#FF0000"/>
<path d="M23.7418 9.28617V4.57812H22.5175V7.36825C21.9646 6.96028 21.2734 6.71644 20.523 6.71644C18.7211 6.71644 17.25 8.10916 17.25 9.82544C17.25 11.5417 18.7162 12.9344 20.523 12.9344C22.1324 12.9344 23.4703 11.8231 23.7418 10.3647V9.28617ZM20.523 11.8371C19.353 11.8371 18.4003 10.9321 18.4003 9.82075C18.4003 8.70939 19.353 7.80436 20.523 7.80436C21.693 7.80436 22.6458 8.70939 22.6458 9.82075C22.6458 10.9321 21.693 11.8371 20.523 11.8371Z" fill="black"/>
<path d="M16.5581 9.28617V4.57812H15.3338V7.36825C14.7809 6.96028 14.0898 6.71644 13.3394 6.71644C11.5375 6.71644 10.0664 8.10916 10.0664 9.82544C10.0664 11.5417 11.5326 12.9344 13.3394 12.9344C14.9488 12.9344 16.2866 11.8231 16.5581 10.3647V9.28617ZM13.3394 11.8371C12.1694 11.8371 11.2167 10.9321 11.2167 9.82075C11.2167 8.70939 12.1694 7.80436 13.3394 7.80436C14.5094 7.80436 15.4622 8.70939 15.4622 9.82075C15.4622 10.9321 14.5094 11.8371 13.3394 11.8371Z" fill="#FF0000"/>
</svg>
