<svg width="15" height="15" viewBox="0 0 15 15" fill="none" xmlns="http://www.w3.org/2000/svg">
<path d="M8.56641 6.97656C8.96745 7.10417 9.28646 7.34115 9.52344 7.6875C9.77865 8.03385 9.90625 8.42578 9.90625 8.86328C9.90625 9.20964 9.82422 9.53776 9.66016 9.84766C9.49609 10.1393 9.26823 10.3763 8.97656 10.5586C8.6849 10.7227 8.375 10.8047 8.04688 10.8047V11.2422C8.04688 11.3698 8.0013 11.4792 7.91016 11.5703C7.83724 11.6432 7.73698 11.6797 7.60938 11.6797H7.17188C7.04427 11.6797 6.9349 11.6432 6.84375 11.5703C6.77083 11.4792 6.73438 11.3698 6.73438 11.2422V10.8047C6.27865 10.7865 5.85938 10.6497 5.47656 10.3945C5.34896 10.3034 5.27604 10.194 5.25781 10.0664C5.25781 9.92057 5.30339 9.80208 5.39453 9.71094L5.72266 9.38281C5.88672 9.23698 6.06901 9.22786 6.26953 9.35547C6.43359 9.44661 6.61589 9.49219 6.81641 9.49219H8.04688C8.19271 9.49219 8.32031 9.42839 8.42969 9.30078C8.53906 9.17318 8.59375 9.02734 8.59375 8.86328C8.59375 8.53516 8.45703 8.32552 8.18359 8.23438L6.21484 7.63281C5.95964 7.5599 5.72266 7.43229 5.50391 7.25C5.30339 7.04948 5.14844 6.82161 5.03906 6.56641C4.92969 6.3112 4.875 6.03776 4.875 5.74609C4.875 5.21745 5.05729 4.76172 5.42188 4.37891C5.78646 3.99609 6.22396 3.80469 6.73438 3.80469V3.36719C6.73438 3.23958 6.77995 3.13932 6.87109 3.06641C6.96224 2.97526 7.0625 2.92969 7.17188 2.92969H7.60938C7.73698 2.92969 7.83724 2.97526 7.91016 3.06641C8.0013 3.13932 8.04688 3.23958 8.04688 3.36719V3.80469C8.52083 3.82292 8.94922 3.95964 9.33203 4.21484C9.44141 4.30599 9.50521 4.42448 9.52344 4.57031C9.54167 4.69792 9.49609 4.80729 9.38672 4.89844L9.05859 5.22656C8.89453 5.3724 8.71224 5.38151 8.51172 5.25391C8.34766 5.16276 8.16536 5.11719 7.96484 5.11719H6.73438C6.58854 5.11719 6.46094 5.18099 6.35156 5.30859C6.24219 5.4362 6.1875 5.58203 6.1875 5.74609C6.1875 6.07422 6.32422 6.28385 6.59766 6.375L8.56641 6.97656ZM2.57812 2.51953C3.90885 1.1888 5.51302 0.523438 7.39062 0.523438C9.26823 0.523438 10.8633 1.1888 12.1758 2.51953C13.5065 3.83203 14.1719 5.42708 14.1719 7.30469C14.1719 9.18229 13.5065 10.7865 12.1758 12.1172C10.8633 13.4297 9.26823 14.0859 7.39062 14.0859C5.51302 14.0859 3.90885 13.4297 2.57812 12.1172C1.26562 10.7865 0.609375 9.18229 0.609375 7.30469C0.609375 5.42708 1.26562 3.83203 2.57812 2.51953ZM3.50781 11.1875C4.58333 12.2448 5.8776 12.7734 7.39062 12.7734C8.90365 12.7734 10.1888 12.2448 11.2461 11.1875C12.3216 10.112 12.8594 8.81771 12.8594 7.30469C12.8594 5.79167 12.3216 4.50651 11.2461 3.44922C10.1888 2.3737 8.90365 1.83594 7.39062 1.83594C5.8776 1.83594 4.58333 2.3737 3.50781 3.44922C2.45052 4.50651 1.92188 5.79167 1.92188 7.30469C1.92188 8.81771 2.45052 10.112 3.50781 11.1875Z" fill="white"/>
</svg>
