<svg width="14" height="15" viewBox="0 0 14 15" fill="none" xmlns="http://www.w3.org/2000/svg">
<path d="M0.953125 2.05469C0.953125 1.58073 1.1263 1.17057 1.47266 0.824219C1.81901 0.477865 2.22917 0.304688 2.70312 0.304688H9.70312L13.2031 3.80469V12.5547C13.2031 13.0286 13.0299 13.4388 12.6836 13.7852C12.3372 14.1315 11.9271 14.3047 11.4531 14.3047H2.70312C2.22917 14.3047 1.81901 14.1315 1.47266 13.7852C1.1263 13.4388 0.953125 13.0286 0.953125 12.5547V2.05469ZM2.26562 2.05469V12.5547C2.26562 12.6823 2.30208 12.7826 2.375 12.8555C2.46615 12.9466 2.57552 12.9922 2.70312 12.9922H11.4531C11.5807 12.9922 11.681 12.9466 11.7539 12.8555C11.8451 12.7826 11.8906 12.6823 11.8906 12.5547V4.35156L9.15625 1.61719H2.70312C2.57552 1.61719 2.46615 1.66276 2.375 1.75391C2.30208 1.82682 2.26562 1.92708 2.26562 2.05469ZM10.5781 9.92969V10.8047C10.5781 11.0417 10.487 11.2513 10.3047 11.4336C10.1406 11.5977 9.9401 11.6797 9.70312 11.6797H8.82812V9.92969H10.5781ZM6.20312 6.42969V4.67969H7.95312V6.42969H6.20312ZM7.95312 9.92969V11.6797H6.20312V9.92969H7.95312ZM8.82812 6.42969V4.67969H9.70312C9.9401 4.67969 10.1406 4.77083 10.3047 4.95312C10.487 5.11719 10.5781 5.31771 10.5781 5.55469V6.42969H8.82812ZM5.32812 9.92969V11.6797H4.45312C4.21615 11.6797 4.00651 11.5977 3.82422 11.4336C3.66016 11.2513 3.57812 11.0417 3.57812 10.8047V9.92969H5.32812ZM3.57812 5.55469C3.57812 5.31771 3.66016 5.11719 3.82422 4.95312C4.00651 4.77083 4.21615 4.67969 4.45312 4.67969H5.32812V6.42969H3.57812V5.55469ZM10.5781 7.30469V9.05469H3.57812V7.30469H10.5781Z" fill="white"/>
</svg>
