<svg width="14" height="15" viewBox="0 0 14 15" fill="none" xmlns="http://www.w3.org/2000/svg">
<path d="M0.933594 2.05469C0.933594 1.58073 1.10677 1.17057 1.45312 0.824219C1.79948 0.477865 2.20964 0.304688 2.68359 0.304688H9.68359L13.1836 3.80469V12.5547C13.1836 13.0286 13.0104 13.4388 12.6641 13.7852C12.3177 14.1315 11.9076 14.3047 11.4336 14.3047H2.68359C2.20964 14.3047 1.79948 14.1315 1.45312 13.7852C1.10677 13.4388 0.933594 13.0286 0.933594 12.5547V2.05469ZM2.24609 2.05469V12.5547C2.24609 12.6823 2.28255 12.7826 2.35547 12.8555C2.44661 12.9466 2.55599 12.9922 2.68359 12.9922H11.4336C11.5612 12.9922 11.6615 12.9466 11.7344 12.8555C11.8255 12.7826 11.8711 12.6823 11.8711 12.5547V4.35156L9.13672 1.61719H2.68359C2.55599 1.61719 2.44661 1.66276 2.35547 1.75391C2.28255 1.82682 2.24609 1.92708 2.24609 2.05469ZM10.5586 9.92969V10.8047C10.5586 11.0417 10.4674 11.2513 10.2852 11.4336C10.1211 11.5977 9.92057 11.6797 9.68359 11.6797H8.80859V9.92969H10.5586ZM6.18359 6.42969V4.67969H7.93359V6.42969H6.18359ZM7.93359 9.92969V11.6797H6.18359V9.92969H7.93359ZM8.80859 6.42969V4.67969H9.68359C9.92057 4.67969 10.1211 4.77083 10.2852 4.95312C10.4674 5.11719 10.5586 5.31771 10.5586 5.55469V6.42969H8.80859ZM5.30859 9.92969V11.6797H4.43359C4.19661 11.6797 3.98698 11.5977 3.80469 11.4336C3.64062 11.2513 3.55859 11.0417 3.55859 10.8047V9.92969H5.30859ZM3.55859 5.55469C3.55859 5.31771 3.64062 5.11719 3.80469 4.95312C3.98698 4.77083 4.19661 4.67969 4.43359 4.67969H5.30859V6.42969H3.55859V5.55469ZM10.5586 7.30469V9.05469H3.55859V7.30469H10.5586Z" fill="white"/>
</svg>
