<svg width="13" height="15" viewBox="0 0 13 15" fill="none" xmlns="http://www.w3.org/2000/svg">
<path d="M0.242188 2.05469C0.242188 1.58073 0.415365 1.17057 0.761719 0.824219C1.10807 0.477865 1.51823 0.304688 1.99219 0.304688H8.99219L12.4922 3.80469V12.5547C12.4922 13.0286 12.319 13.4388 11.9727 13.7852C11.6263 14.1315 11.2161 14.3047 10.7422 14.3047H1.99219C1.51823 14.3047 1.10807 14.1315 0.761719 13.7852C0.415365 13.4388 0.242188 13.0286 0.242188 12.5547V2.05469ZM1.55469 2.05469V12.5547C1.55469 12.6823 1.59115 12.7826 1.66406 12.8555C1.75521 12.9466 1.86458 12.9922 1.99219 12.9922H10.7422C10.8698 12.9922 10.9701 12.9466 11.043 12.8555C11.1341 12.7826 11.1797 12.6823 11.1797 12.5547V4.35156L8.44531 1.61719H1.99219C1.86458 1.61719 1.75521 1.66276 1.66406 1.75391C1.59115 1.82682 1.55469 1.92708 1.55469 2.05469ZM9.86719 9.92969V10.8047C9.86719 11.0417 9.77604 11.2513 9.59375 11.4336C9.42969 11.5977 9.22917 11.6797 8.99219 11.6797H8.11719V9.92969H9.86719ZM5.49219 6.42969V4.67969H7.24219V6.42969H5.49219ZM7.24219 9.92969V11.6797H5.49219V9.92969H7.24219ZM8.11719 6.42969V4.67969H8.99219C9.22917 4.67969 9.42969 4.77083 9.59375 4.95312C9.77604 5.11719 9.86719 5.31771 9.86719 5.55469V6.42969H8.11719ZM4.61719 9.92969V11.6797H3.74219C3.50521 11.6797 3.29557 11.5977 3.11328 11.4336C2.94922 11.2513 2.86719 11.0417 2.86719 10.8047V9.92969H4.61719ZM2.86719 5.55469C2.86719 5.31771 2.94922 5.11719 3.11328 4.95312C3.29557 4.77083 3.50521 4.67969 3.74219 4.67969H4.61719V6.42969H2.86719V5.55469ZM9.86719 7.30469V9.05469H2.86719V7.30469H9.86719Z" fill="white"/>
</svg>
