<svg width="15" height="13" viewBox="0 0 15 13" fill="none" xmlns="http://www.w3.org/2000/svg">
<path d="M12.3281 2.36719C12.8203 2.36719 13.2305 2.54036 13.5586 2.88672C13.9049 3.21484 14.0781 3.625 14.0781 4.11719V10.6797C14.0781 11.1719 13.9049 11.582 13.5586 11.9102C13.2305 12.2565 12.8203 12.4297 12.3281 12.4297H2.70312C1.97396 12.4297 1.35417 12.1745 0.84375 11.6641C0.333333 11.1536 0.078125 10.5339 0.078125 9.80469V2.80469C0.078125 2.07552 0.333333 1.45573 0.84375 0.945312C1.35417 0.434896 1.97396 0.179688 2.70312 0.179688H10.5781C11.0703 0.179688 11.4805 0.352865 11.8086 0.699219C12.1549 1.02734 12.3281 1.4375 12.3281 1.92969V2.36719ZM12.7656 10.6797V4.11719C12.7656 3.98958 12.7201 3.88932 12.6289 3.81641C12.556 3.72526 12.4557 3.67969 12.3281 3.67969H3.14062C3.01302 3.67969 2.90365 3.64323 2.8125 3.57031C2.73958 3.47917 2.70312 3.36979 2.70312 3.24219C2.70312 3.11458 2.73958 3.01432 2.8125 2.94141C2.90365 2.85026 3.01302 2.80469 3.14062 2.80469H11.0156V1.92969C11.0156 1.80208 10.9701 1.70182 10.8789 1.62891C10.806 1.53776 10.7057 1.49219 10.5781 1.49219H2.70312C2.33854 1.49219 2.02865 1.61979 1.77344 1.875C1.51823 2.13021 1.39062 2.4401 1.39062 2.80469V9.80469C1.39062 10.1693 1.51823 10.4792 1.77344 10.7344C2.02865 10.9896 2.33854 11.1172 2.70312 11.1172H12.3281C12.4557 11.1172 12.556 11.0807 12.6289 11.0078C12.7201 10.9167 12.7656 10.8073 12.7656 10.6797ZM9.94922 6.57812C10.1315 6.39583 10.3411 6.30469 10.5781 6.30469C10.8151 6.30469 11.0156 6.39583 11.1797 6.57812C11.362 6.74219 11.4531 6.94271 11.4531 7.17969C11.4531 7.41667 11.362 7.6263 11.1797 7.80859C11.0156 7.97266 10.8151 8.05469 10.5781 8.05469C10.3411 8.05469 10.1315 7.97266 9.94922 7.80859C9.78516 7.6263 9.70312 7.41667 9.70312 7.17969C9.70312 6.94271 9.78516 6.74219 9.94922 6.57812Z" fill="white"/>
</svg>
