<svg width="17" height="11" viewBox="0 0 17 11" fill="none" xmlns="http://www.w3.org/2000/svg">
<path d="M15.7109 0.0546875C15.8932 0.0546875 16.0482 0.11849 16.1758 0.246094C16.3034 0.373698 16.3672 0.528646 16.3672 0.710938V9.89844C16.3672 10.0807 16.3034 10.2357 16.1758 10.3633C16.0482 10.4909 15.8932 10.5547 15.7109 10.5547H2.14844C1.72917 10.5547 1.36458 10.4089 1.05469 10.1172C0.763021 9.80729 0.617188 9.44271 0.617188 9.02344V1.58594C0.617188 1.40365 0.68099 1.2487 0.808594 1.12109C0.936198 0.99349 1.09115 0.929688 1.27344 0.929688H2.44922C2.54036 0.674479 2.69531 0.464844 2.91406 0.300781C3.15104 0.136719 3.40625 0.0546875 3.67969 0.0546875H15.7109ZM1.92969 9.02344C1.92969 9.16927 2.0026 9.24219 2.14844 9.24219C2.29427 9.24219 2.36719 9.16927 2.36719 9.02344V2.24219H1.92969V9.02344ZM15.0547 9.24219V1.36719H3.67969V9.02344C3.67969 9.09635 3.67057 9.16927 3.65234 9.24219H15.0547ZM5.32031 5.96094C5.10156 5.96094 4.99219 5.85156 4.99219 5.63281V3.00781C4.99219 2.78906 5.10156 2.67969 5.32031 2.67969H9.03906C9.25781 2.67969 9.36719 2.78906 9.36719 3.00781V5.63281C9.36719 5.85156 9.25781 5.96094 9.03906 5.96094H5.32031ZM6.08594 3.77344V4.86719H8.27344V3.77344H6.08594ZM4.99219 7.60156V6.94531C4.99219 6.72656 5.10156 6.61719 5.32031 6.61719H9.03906C9.25781 6.61719 9.36719 6.72656 9.36719 6.94531V7.60156C9.36719 7.82031 9.25781 7.92969 9.03906 7.92969H5.32031C5.10156 7.92969 4.99219 7.82031 4.99219 7.60156ZM10.2422 7.60156V6.94531C10.2422 6.72656 10.3516 6.61719 10.5703 6.61719H13.4141C13.6328 6.61719 13.7422 6.72656 13.7422 6.94531V7.60156C13.7422 7.82031 13.6328 7.92969 13.4141 7.92969H10.5703C10.3516 7.92969 10.2422 7.82031 10.2422 7.60156ZM10.2422 3.66406V3.00781C10.2422 2.78906 10.3516 2.67969 10.5703 2.67969H13.4141C13.6328 2.67969 13.7422 2.78906 13.7422 3.00781V3.66406C13.7422 3.88281 13.6328 3.99219 13.4141 3.99219H10.5703C10.3516 3.99219 10.2422 3.88281 10.2422 3.66406ZM10.2422 5.63281V4.97656C10.2422 4.75781 10.3516 4.64844 10.5703 4.64844H13.4141C13.6328 4.64844 13.7422 4.75781 13.7422 4.97656V5.63281C13.7422 5.85156 13.6328 5.96094 13.4141 5.96094H10.5703C10.3516 5.96094 10.2422 5.85156 10.2422 5.63281Z" fill="white"/>
</svg>
