<svg width="36" height="12" viewBox="0 0 36 12" fill="none" xmlns="http://www.w3.org/2000/svg">
<path d="M7.2124 2.69434H4.2417V10.9336H3.0293V2.69434H0.0649414V1.69141H7.2124V2.69434ZM12.6396 10.9336C12.5719 10.7982 12.5169 10.557 12.4746 10.21C11.9287 10.777 11.277 11.0605 10.5195 11.0605C9.84245 11.0605 9.28597 10.8701 8.8501 10.4893C8.41846 10.1042 8.20264 9.61751 8.20264 9.0293C8.20264 8.31413 8.47347 7.75977 9.01514 7.36621C9.56104 6.96842 10.327 6.76953 11.313 6.76953H12.4556V6.22998C12.4556 5.8195 12.3328 5.49365 12.0874 5.25244C11.842 5.007 11.4801 4.88428 11.002 4.88428C10.583 4.88428 10.2318 4.99007 9.94824 5.20166C9.66471 5.41325 9.52295 5.66927 9.52295 5.96973H8.34229C8.34229 5.62695 8.46289 5.29688 8.7041 4.97949C8.94954 4.65788 9.27962 4.40397 9.69434 4.21777C10.1133 4.03158 10.5724 3.93848 11.0718 3.93848C11.8631 3.93848 12.4831 4.13737 12.9316 4.53516C13.3802 4.92871 13.613 5.47249 13.6299 6.1665V9.32764C13.6299 9.95817 13.7103 10.4596 13.8711 10.832V10.9336H12.6396ZM10.6909 10.0386C11.0591 10.0386 11.4082 9.94336 11.7383 9.75293C12.0684 9.5625 12.3075 9.31494 12.4556 9.01025V7.60107H11.5352C10.0964 7.60107 9.37695 8.02214 9.37695 8.86426C9.37695 9.23242 9.49967 9.52018 9.74512 9.72754C9.99056 9.9349 10.3058 10.0386 10.6909 10.0386ZM10.7227 1.38037H11.6875L13.5283 3.0498H12.2778L11.2051 2.04053L10.126 3.0498H8.86914L10.7227 1.38037ZM13.96 0.282227H15.2295L13.9536 1.92627H13.0586L13.96 0.282227ZM17.064 2.40234V4.06543H18.3462V4.97314H17.064V9.23242C17.064 9.50749 17.1211 9.71484 17.2354 9.85449C17.3496 9.98991 17.5443 10.0576 17.8193 10.0576C17.9548 10.0576 18.141 10.0322 18.3779 9.98145V10.9336C18.069 11.0182 17.7686 11.0605 17.4766 11.0605C16.9518 11.0605 16.5562 10.9019 16.2896 10.5845C16.0229 10.2671 15.8896 9.81641 15.8896 9.23242V4.97314H14.6392V4.06543H15.8896V2.40234H17.064ZM25.7031 10.1021C26.1221 10.1021 26.4881 9.9751 26.8013 9.72119C27.1144 9.46729 27.2879 9.1499 27.3218 8.76904H28.4326C28.4115 9.1626 28.276 9.53711 28.0264 9.89258C27.7767 10.248 27.4424 10.5316 27.0234 10.7432C26.6087 10.9548 26.1686 11.0605 25.7031 11.0605C24.7679 11.0605 24.0231 10.7495 23.4688 10.1274C22.9186 9.50114 22.6436 8.64632 22.6436 7.56299V7.36621C22.6436 6.69759 22.7663 6.10303 23.0117 5.58252C23.2572 5.06201 23.6084 4.65788 24.0654 4.37012C24.5267 4.08236 25.0705 3.93848 25.6968 3.93848C26.467 3.93848 27.106 4.16911 27.6138 4.63037C28.1258 5.09163 28.3988 5.69043 28.4326 6.42676H27.3218C27.2879 5.98242 27.1187 5.61849 26.814 5.33496C26.5135 5.0472 26.1411 4.90332 25.6968 4.90332C25.1001 4.90332 24.6367 5.11914 24.3066 5.55078C23.9808 5.97819 23.8179 6.59814 23.8179 7.41064V7.63281C23.8179 8.42415 23.9808 9.03353 24.3066 9.46094C24.6325 9.88835 25.098 10.1021 25.7031 10.1021ZM33.9932 10.9336C33.9255 10.7982 33.8704 10.557 33.8281 10.21C33.2822 10.777 32.6305 11.0605 31.873 11.0605C31.196 11.0605 30.6395 10.8701 30.2036 10.4893C29.772 10.1042 29.5562 9.61751 29.5562 9.0293C29.5562 8.31413 29.827 7.75977 30.3687 7.36621C30.9146 6.96842 31.6805 6.76953 32.6665 6.76953H33.8091V6.22998C33.8091 5.8195 33.6864 5.49365 33.4409 5.25244C33.1955 5.007 32.8337 4.88428 32.3555 4.88428C31.9365 4.88428 31.5853 4.99007 31.3018 5.20166C31.0182 5.41325 30.8765 5.66927 30.8765 5.96973H29.6958C29.6958 5.62695 29.8164 5.29688 30.0576 4.97949C30.3031 4.65788 30.6331 4.40397 31.0479 4.21777C31.4668 4.03158 31.9259 3.93848 32.4253 3.93848C33.2166 3.93848 33.8366 4.13737 34.2852 4.53516C34.7337 4.92871 34.9665 5.47249 34.9834 6.1665V9.32764C34.9834 9.95817 35.0638 10.4596 35.2246 10.832V10.9336H33.9932ZM32.0444 10.0386C32.4126 10.0386 32.7617 9.94336 33.0918 9.75293C33.4219 9.5625 33.661 9.31494 33.8091 9.01025V7.60107H32.8887C31.4499 7.60107 30.7305 8.02214 30.7305 8.86426C30.7305 9.23242 30.8532 9.52018 31.0986 9.72754C31.3441 9.9349 31.6593 10.0386 32.0444 10.0386ZM32.1587 2.95459L32.1523 1.9834C32.4697 1.96224 32.7025 1.91992 32.8506 1.85645C32.9987 1.79297 33.0728 1.67871 33.0728 1.51367C33.0728 1.34863 32.9754 1.22591 32.7808 1.14551C32.5903 1.06087 32.3364 1.01855 32.019 1.01855L32.0635 0.345703C32.694 0.345703 33.1722 0.455729 33.498 0.675781C33.8239 0.891602 33.9868 1.17936 33.9868 1.53906C33.9868 1.7972 33.9043 2.0109 33.7393 2.18018C33.5742 2.34945 33.3288 2.45736 33.0029 2.50391L32.9966 2.95459H32.1587Z" fill="black"/>
</svg>
