<svg width="28" height="13" viewBox="0 0 28 13" fill="none" xmlns="http://www.w3.org/2000/svg">
<path d="M13.0912 0.933594C13.2332 1.00101 13.3751 1.00101 13.5171 1.06842C14.2978 1.33808 14.8655 2.01222 14.9365 2.82118C14.9365 3.29308 14.8655 3.76498 14.5816 4.16946C13.3751 6.12446 12.1686 8.07947 10.9621 10.0345C10.6073 10.6412 10.2524 11.2479 9.82659 11.8546C9.32979 12.5962 8.69106 12.9333 7.76843 12.9333C7.20067 12.9333 6.70387 12.731 6.27805 12.3265C6.27805 12.2591 6.27805 12.2591 6.20708 12.2591C5.92319 11.8546 5.78125 11.4502 5.78125 10.9783C5.78125 10.5738 5.92319 10.1693 6.1361 9.83223C6.56193 9.15809 6.98776 8.48395 7.41358 7.80981C7.62649 7.54016 7.76843 7.20309 7.91038 6.93343C7.91038 6.86602 7.98135 6.86602 7.98135 6.7986C8.97494 5.24808 9.89756 3.69756 10.8912 2.14704C11.246 1.60773 11.7428 1.27066 12.3815 1.06842C12.5235 1.06842 12.5945 1.00101 12.7364 1.00101C12.7364 0.933594 12.9493 0.933594 13.0912 0.933594Z" fill="#EA8932"/>
<path d="M19.1214 0.933594C19.3343 1.00101 19.4763 1.00101 19.6892 1.06842C20.3989 1.33808 20.8247 1.87739 20.9667 2.61894C21.0376 3.15825 20.9667 3.63015 20.6118 4.10205C19.0504 6.66378 17.4891 9.15809 15.8568 11.7198C15.5019 12.3265 14.8632 12.731 14.1535 12.8659C13.0179 13.0681 11.9534 12.3265 11.7404 11.2479C11.6695 10.7086 11.7404 10.1693 12.0243 9.6974C13.1599 7.87723 14.2954 6.05705 15.36 4.30429C15.7858 3.56274 16.2826 2.82118 16.7084 2.14704C17.1342 1.4729 17.702 1.06842 18.4827 1.00101C18.4827 1.00101 18.4827 1.00101 18.5536 1.00101C18.7666 0.933594 18.9795 0.933594 19.1214 0.933594Z" fill="#EA8932"/>
<path d="M25.2968 0.933594C25.4388 1.00101 25.5807 1.00101 25.7936 1.06842C26.5743 1.33808 27.0711 1.87739 27.213 2.68636C27.284 3.22567 27.213 3.76498 26.8582 4.23687C25.4388 6.52895 24.0194 8.75361 22.5999 11.0457C22.387 11.3827 22.1741 11.7872 21.9612 12.0569C21.4644 12.6636 20.8257 12.9333 20.045 12.9333C18.9804 12.9333 18.0578 12.1917 17.9868 11.1805C17.9159 10.6412 18.0578 10.1693 18.3417 9.76481C19.903 7.20309 21.4644 4.70877 23.0967 2.14704C23.5226 1.4729 24.0903 1.13584 24.871 1.00101C24.871 1.00101 24.871 1.00101 24.942 1.00101C24.942 0.933594 25.0839 0.933594 25.2968 0.933594Z" fill="#EA8932"/>
<path d="M7.83861 6.7986C7.69667 7.06826 7.48376 7.40533 7.34182 7.67498C6.91599 8.34912 6.49017 9.02326 6.06434 9.6974C5.85143 10.0345 5.70949 10.439 5.70949 10.8434C5.70949 11.3153 5.85143 11.7872 6.13531 12.1243L6.20629 12.1917C6.13531 12.1243 6.06434 12.0569 5.99337 11.9895C5.70949 11.6524 5.49658 11.2479 5.28366 10.9109C4.07716 9.02326 2.87066 7.06826 1.73512 5.18067C1.52221 4.8436 1.3093 4.50653 1.09638 4.10205C0.954442 3.83239 0.8125 3.56274 0.8125 3.22567C0.8125 3.22567 0.8125 3.22567 0.8125 3.15825C0.8125 3.02342 0.8125 2.8886 0.8125 2.75377V2.68636C0.954442 1.9448 1.38027 1.33808 2.08998 1.06842C2.30289 1.00101 2.44483 1.00101 2.65774 0.933594C2.79968 0.933594 2.94163 0.933594 3.15454 0.933594C3.15454 0.933594 3.15454 0.933594 3.22551 0.933594C4.00619 1.06842 4.57396 1.40549 4.99978 2.07963C5.49658 2.95601 6.06434 3.76498 6.56114 4.64136C6.91599 5.38291 7.41279 6.12446 7.83861 6.7986Z" fill="#8A9298"/>
</svg>
