<svg width="55" height="6" viewBox="0 0 55 6" fill="none" xmlns="http://www.w3.org/2000/svg">
<path d="M46.1277 5.29201C43.8621 5.29201 41.7157 5.29201 39.4501 5.29201C39.3308 5.29201 39.0923 5.29201 38.9731 5.29201C38.4961 5.29201 38.3769 5.06548 38.3769 4.61241C38.3769 4.15934 38.3769 3.70627 38.3769 3.2532C38.3769 2.80013 38.0191 2.34706 37.5422 2.34706C36.946 2.34706 36.3497 2.34706 35.7535 2.34706C35.2765 2.34706 34.7996 2.80013 34.7996 3.36647C34.7996 3.81954 34.7996 4.27261 34.7996 4.72567C34.7996 4.95221 34.6803 5.06548 34.5611 5.17874C33.8456 5.40528 33.0109 5.51854 32.2955 5.17874C32.057 5.06548 31.9377 4.95221 31.9377 4.72567C31.9377 4.27261 31.9377 3.81954 31.9377 3.36647C31.9377 2.80013 31.6992 2.46033 31.103 2.46033C30.2683 2.34706 29.4336 2.34706 28.5989 2.46033C28.0027 2.46033 27.7642 2.9134 27.7642 3.36647C27.7642 3.81954 27.7642 4.27261 27.7642 4.72567C27.7642 4.95221 27.645 5.06548 27.5257 5.17874C26.691 5.51854 25.9755 5.51854 25.1408 5.17874C25.0216 5.06548 24.9024 4.95221 24.9024 4.72567C24.9024 4.27261 24.9024 3.81954 24.9024 3.36647C24.9024 2.80013 24.6639 2.46033 23.9484 2.34706C23.8292 2.34706 23.5907 2.34706 23.4714 2.34706C21.2058 2.34706 18.9402 2.34706 16.6745 2.34706C16.5553 2.34706 16.4361 2.23379 16.4361 2.46033C16.4361 2.68686 16.5553 2.80013 16.6745 2.80013C16.7938 2.80013 17.0323 2.80013 17.1515 2.80013C18.2247 2.80013 19.4172 2.80013 20.4903 2.80013C20.6096 2.80013 20.7288 2.68686 20.8481 2.9134C20.9673 3.13993 20.8481 3.47973 20.6096 3.593C20.4903 3.70627 20.2519 3.70627 20.1326 3.70627C19.0594 3.70627 17.867 3.70627 16.7938 3.70627C16.6746 3.70627 16.4361 3.593 16.4361 3.81954C16.4361 4.15934 16.4361 4.38587 16.6745 4.38587C16.7938 4.38587 17.0323 4.38587 17.1515 4.38587C18.4632 4.38587 19.6556 4.38587 20.9673 4.38587C21.0866 4.38587 21.3251 4.27261 21.3251 4.49914C21.3251 4.72568 21.4443 4.95221 21.2058 5.06548C20.9673 5.29201 20.6096 5.29201 20.2519 5.29201C18.5824 5.29201 16.913 5.29201 15.3629 5.29201C15.0051 5.29201 14.5282 5.29201 14.1704 5.29201C13.6935 5.17874 13.5742 5.06548 13.5742 4.61241C13.5742 3.81954 13.5742 2.9134 13.5742 2.12053C13.5742 1.66746 13.6935 1.55419 14.1704 1.44092C14.2897 1.44092 14.5282 1.44092 14.6474 1.44092C17.867 1.44092 21.0866 1.44092 24.3061 1.44092C24.7831 1.44092 24.7831 1.44092 24.9024 0.987856C24.9024 0.874589 25.0216 0.76132 25.1408 0.648053C25.8563 0.421518 26.5718 0.308251 27.2872 0.648053C27.5257 0.76132 27.645 0.874589 27.7642 1.10112C27.7642 1.32766 27.8834 1.44092 28.2412 1.44092C29.3144 1.44092 30.5068 1.44092 31.58 1.44092C31.8185 1.44092 32.057 1.32766 32.057 1.10112C32.057 0.874589 32.1762 0.76132 32.4147 0.648053C33.1302 0.421518 33.8456 0.308251 34.5611 0.648053C34.7996 0.76132 34.9188 0.874589 35.0381 1.10112C35.0381 1.32766 35.2765 1.44092 35.515 1.44092C36.2305 1.44092 36.946 1.44092 37.5422 1.44092C40.404 1.44092 43.1466 1.44092 46.0085 1.44092C46.1277 1.44092 46.247 1.32766 46.3662 1.55419C46.4854 1.78073 46.3662 2.12053 46.247 2.12053C46.0085 2.2338 45.6507 2.2338 45.4123 2.2338C44.2198 2.2338 43.1466 2.2338 41.9542 2.2338C41.8349 2.2338 41.7157 2.12053 41.5965 2.34706C41.5965 2.5736 41.5965 2.80013 41.8349 2.80013C41.9542 2.80013 42.1927 2.80013 42.3119 2.80013C43.3851 2.80013 44.5775 2.80013 45.6507 2.80013C45.77 2.80013 46.0085 2.68686 46.0085 2.9134C46.1277 3.2532 46.0085 3.47973 45.77 3.593C45.6507 3.593 45.5315 3.593 45.4123 3.593C44.2198 3.593 43.1466 3.593 41.9542 3.593C41.8349 3.593 41.5965 3.47973 41.5965 3.70627C41.5965 4.04607 41.5965 4.27261 41.9542 4.27261C42.0734 4.27261 42.1927 4.27261 42.3119 4.27261C43.7428 4.27261 45.293 4.27261 46.7239 4.27261C46.9624 4.27261 46.9624 4.2726 46.9624 4.04607C46.9624 3.36647 46.9624 2.5736 46.9624 1.89399C46.9624 1.55419 47.0817 1.32766 47.4394 1.32766C48.0356 1.21439 48.7511 1.21439 49.3473 1.44092C49.705 1.55419 49.8243 1.66746 49.8243 2.12053C49.8243 2.5736 49.8243 3.13993 49.8243 3.593C49.8243 4.15934 50.0627 4.38587 50.659 4.38587C51.7322 4.38587 52.8054 4.38587 53.8785 4.38587C53.9978 4.38587 54.2363 4.27261 54.2363 4.49914C54.2363 4.72568 54.3555 4.95221 54.117 5.17874C53.8785 5.40528 53.6401 5.40528 53.2823 5.40528C52.6861 5.40528 51.9706 5.40528 51.3744 5.40528C49.4665 5.29201 47.7971 5.29201 46.1277 5.29201Z" fill="#01918C"/>
<path d="M9.63652 2.68635C9.15955 3.25268 8.56333 3.81902 8.08636 4.38535C7.72863 4.95169 7.25165 5.17822 6.53619 5.17822C5.82073 5.29149 4.98602 5.29149 4.27056 5.06496C3.91283 4.95169 3.67435 4.83842 3.5551 4.61189C2.7204 3.59248 1.76645 2.57308 0.931743 1.55367C0.931743 1.44041 0.8125 1.44041 0.8125 1.32714C1.76645 1.32714 2.60115 1.21387 3.5551 1.44041C3.91283 1.55367 4.15132 1.66694 4.38981 2.00674C4.86678 2.68635 5.34376 3.25268 5.82073 3.93229C5.93997 4.04555 5.93997 4.15882 6.17846 3.93229C6.65544 3.25268 7.13241 2.57308 7.60938 1.89347C7.84787 1.55367 8.2056 1.32714 8.56333 1.32714C9.75577 1.21387 10.9482 1.21387 12.1406 1.32714C12.2599 1.32714 12.3791 1.44041 12.4984 1.44041C12.7369 1.55367 12.8561 1.66694 12.8561 1.89347C12.8561 2.79961 12.8561 3.59248 12.8561 4.49862C12.8561 4.72516 12.7369 4.83842 12.6176 4.95169C11.9022 5.29149 11.1867 5.29149 10.352 5.06496C10.1135 4.95169 9.99426 4.83842 9.99426 4.49862C9.75577 3.93229 9.75577 3.36595 9.63652 2.68635C9.75577 2.68635 9.75577 2.68635 9.63652 2.68635Z" fill="#01918C"/>
</svg>
