<svg width="58" height="14" viewBox="0 0 58 14" fill="none" xmlns="http://www.w3.org/2000/svg">
<path d="M4.7475 7.46875L3.11494 11.7631H1.85912L0.226562 7.46875H1.60796L2.61261 10.6895L3.61727 7.46875H4.7475Z" fill="#308BE3"/>
<path d="M6.76754 5.91797V6.99156H5.51172V5.91797H6.76754ZM5.51172 7.46871H6.76754V11.7631H5.51172V7.46871Z" fill="#308BE3"/>
<path d="M12.1676 8.78301V11.7652H10.9118V9.14088C10.9118 8.9023 10.9118 8.78301 10.7862 8.66373C10.6607 8.42515 10.4095 8.30586 10.1583 8.30586C9.90716 8.30586 9.656 8.42515 9.53042 8.54444C9.40484 8.66373 9.27925 8.9023 9.27925 9.26016V11.7652H8.02344V7.47085H9.15367V8.06729C9.27925 7.82871 9.40484 7.70942 9.53042 7.59014C9.78158 7.35156 10.1583 7.35156 10.5351 7.35156C11.0374 7.35156 11.4141 7.47085 11.6653 7.70942C12.0421 7.948 12.1676 8.30586 12.1676 8.78301Z" fill="#308BE3"/>
<path d="M17.1743 11.6438V11.7631H16.044C16.044 11.5245 16.044 11.7631 16.044 11.5245C16.044 11.5245 16.044 11.4052 16.044 11.286C15.9185 11.5245 15.6673 11.6438 15.5417 11.6438C15.2906 11.7631 14.9138 11.8824 14.6626 11.8824C14.2859 11.8824 13.9092 11.7631 13.658 11.6438C13.4068 11.4052 13.2812 11.0474 13.2812 10.6895C13.2812 10.3317 13.4068 9.97379 13.658 9.73522C13.9092 9.49664 14.1603 9.37735 14.5371 9.37735L15.6673 9.25806C15.7929 9.25806 15.9185 9.13878 16.044 9.13878C16.044 9.13878 16.1696 9.01949 16.1696 8.9002C16.1696 8.66163 16.044 8.54234 15.9185 8.42305C15.7929 8.42305 15.6673 8.30376 15.4161 8.30376C15.165 8.30376 14.9138 8.42305 14.7882 8.54234C14.6626 8.66163 14.6626 8.78092 14.6626 8.9002H13.5324C13.5324 8.30376 13.7836 7.82661 14.2859 7.70733C14.5371 7.58804 15.0394 7.46875 15.5417 7.46875C16.044 7.46875 16.4208 7.58804 16.672 7.70733C17.1743 7.9459 17.2999 8.30376 17.2999 8.78091V11.1667L17.1743 11.6438ZM16.044 10.2124V9.61593C15.9185 9.61593 15.9185 9.73522 15.7929 9.73522C15.6673 9.73522 15.5417 9.8545 15.2906 9.8545C15.0394 9.8545 14.7882 9.97379 14.7882 9.97379C14.6626 10.0931 14.5371 10.2124 14.5371 10.4509C14.5371 10.5702 14.5371 10.8088 14.6626 10.8088C14.7882 10.9281 14.9138 10.9281 15.0394 10.9281C15.2906 10.9281 15.5417 10.8088 15.7929 10.6895C15.9185 10.6895 16.044 10.4509 16.044 10.2124Z" fill="#308BE3"/>
<path d="M19.5605 7.46694V8.06338C19.6861 7.82481 19.9372 7.70552 20.0628 7.58623C20.314 7.46694 20.5652 7.34766 20.9419 7.34766C21.4442 7.34766 21.9466 7.58623 22.1977 7.94409C22.5745 8.30196 22.8256 8.8984 22.8256 9.61412C22.8256 10.2106 22.7 10.807 22.3233 11.1649C21.9466 11.642 21.4442 11.8806 20.8163 11.8806C20.4396 11.8806 20.1884 11.7613 19.9372 11.642C19.8117 11.5227 19.6861 11.4034 19.5605 11.1649V13.4313H18.3047V7.46694H19.5605ZM19.5605 9.73341C19.5605 10.0913 19.6861 10.3298 19.8117 10.5684C19.9372 10.807 20.314 10.9263 20.6907 10.9263C21.0675 10.9263 21.3186 10.807 21.4442 10.4491C21.5698 10.2106 21.6954 9.97198 21.6954 9.61412C21.6954 9.25626 21.5698 8.89839 21.4442 8.65982C21.3186 8.42124 20.9419 8.30196 20.6907 8.30196C20.314 8.30196 20.0628 8.42124 19.8117 8.77911C19.5605 9.01768 19.5605 9.25626 19.5605 9.73341Z" fill="#308BE3"/>
<path d="M27.984 8.78087V11.7631H26.7282V9.13874C26.7282 8.90016 26.7282 8.78087 26.6026 8.66158C26.4771 8.42301 26.2259 8.30372 25.9747 8.30372C25.7236 8.30372 25.4724 8.42301 25.3468 8.5423C25.2212 8.66159 25.0957 8.90016 25.0957 9.25802V11.7631H23.8398V5.91797H25.0957V7.94586C25.2212 7.70728 25.3468 7.588 25.598 7.46871C25.8491 7.34942 26.1003 7.23013 26.4771 7.23013C26.9794 7.23013 27.3561 7.34942 27.6073 7.588C27.8585 7.94586 27.984 8.30372 27.984 8.78087Z" fill="#308BE3"/>
<path d="M33.7526 9.61412C33.7526 10.3298 33.5014 10.9263 32.9991 11.2841C32.6223 11.642 31.9944 11.8806 31.3665 11.8806C30.7386 11.8806 30.2363 11.642 29.734 11.2841C29.2316 10.9263 28.9805 10.3298 28.9805 9.61412C28.9805 8.8984 29.2316 8.30196 29.734 7.94409C30.1107 7.58623 30.7386 7.34766 31.3665 7.34766C31.9944 7.34766 32.6223 7.58623 32.9991 7.94409C33.5014 8.30196 33.7526 8.8984 33.7526 9.61412ZM32.4968 9.61412C32.4968 9.25626 32.3712 9.01768 32.2456 8.77911C32.12 8.42124 31.7433 8.30196 31.3665 8.30196C30.9898 8.30196 30.613 8.42124 30.4874 8.77911C30.3619 9.01768 30.2363 9.25626 30.2363 9.61412C30.2363 9.97199 30.3619 10.2106 30.4874 10.4491C30.613 10.807 30.9898 10.9263 31.3665 10.9263C31.7433 10.9263 32.12 10.807 32.2456 10.4491C32.4968 10.2106 32.4968 9.97199 32.4968 9.61412Z" fill="#308BE3"/>
<path d="M38.6481 8.77911V11.7613H37.3923V9.13697C37.3923 8.8984 37.3923 8.77911 37.2667 8.65982C37.1411 8.42124 36.89 8.30196 36.6388 8.30196C36.3876 8.30196 36.1365 8.42125 36.0109 8.54053C35.8853 8.65982 35.7597 8.89839 35.7597 9.25626V11.7613H34.5039V7.46694H35.6341V8.06338C35.7597 7.82481 35.8853 7.70552 36.0109 7.58623C36.2621 7.34765 36.6388 7.34766 37.0155 7.34766C37.5179 7.34766 37.8946 7.46694 38.1458 7.70552C38.5225 7.94409 38.6481 8.30196 38.6481 8.77911Z" fill="#308BE3"/>
<path d="M42.6741 10.5684H43.9299C43.8044 11.0456 43.5532 11.4034 43.0509 11.642C42.6741 11.8806 42.2974 11.9999 41.9206 11.9999C41.1671 11.9999 40.6648 11.8806 40.2881 11.5227C39.9113 11.1649 39.6602 10.4491 39.6602 9.61412C39.6602 8.8984 39.9113 8.42125 40.2881 7.94409C40.6648 7.58623 41.1671 7.34766 41.795 7.34766C42.423 7.34766 42.7997 7.46694 43.1764 7.82481C43.6788 8.18267 43.9299 8.8984 43.9299 9.73341V9.97198H40.7904C40.7904 10.3298 40.916 10.5684 41.1671 10.807C41.2927 10.9263 41.5439 11.0456 41.9206 11.0456C42.0462 11.0456 42.2974 11.0456 42.423 10.9263C42.5485 10.807 42.6741 10.6877 42.6741 10.5684ZM40.916 9.13697H42.7997C42.7997 8.77911 42.6741 8.54053 42.423 8.42124C42.2974 8.30196 42.0462 8.18267 41.795 8.18267C41.2927 8.30196 41.0416 8.54053 40.916 9.13697Z" fill="#308BE3"/>
<path d="M44.6855 1.26627C44.1832 0.789122 43.0529 -0.0458911 41.6715 0.789122C41.1692 1.0277 39.5366 2.81701 41.1692 4.72561C41.9227 5.44134 42.6762 5.32205 44.3087 5.44134C44.8111 5.44134 48.0762 6.27635 47.9506 8.30424C47.9506 8.90068 48.0762 10.0936 46.946 10.2128C45.9413 10.3321 44.3087 11.1671 45.6901 12.7179C45.9413 13.0758 47.6994 13.6722 48.0762 12.1214C48.2018 11.4057 47.825 9.97427 48.8297 9.85498C49.8343 9.73569 51.2157 10.0936 51.5925 8.30424C51.8436 7.23065 52.346 6.03778 53.4762 5.44134C54.1041 5.32205 54.2297 5.56063 55.8623 5.20276C56.239 5.08348 57.8716 4.12917 56.9925 2.10128C56.7413 1.62413 55.4855 0.311971 53.9785 1.26627C53.7274 1.50485 53.0995 2.10129 53.0995 3.41345C52.9739 4.24846 52.5971 6.63422 49.5832 6.63422C48.8297 6.51493 46.8204 6.15707 45.8157 3.65203C45.1878 2.22057 44.9366 1.62414 44.6855 1.26627Z" fill="#328DDD"/>
</svg>
